<svg width="164" height="44" viewBox="0 0 164 44" fill="none" xmlns="http://www.w3.org/2000/svg">
<path d="M0 22C0 14.4614 0 10.6922 1.42127 7.79305C2.78003 5.02143 5.02143 2.78003 7.79305 1.42127C10.6922 0 14.4614 0 22 0C29.5386 0 33.3078 0 36.207 1.42127C38.9786 2.78003 41.22 5.02143 42.5787 7.79305C44 10.6922 44 14.4614 44 22C44 29.5386 44 33.3078 42.5787 36.207C41.22 38.9786 38.9786 41.22 36.207 42.5787C33.3078 44 29.5386 44 22 44C14.4614 44 10.6922 44 7.79305 42.5787C5.02143 41.22 2.78003 38.9786 1.42127 36.207C0 33.3078 0 29.5386 0 22Z" fill="url(#paint0_linear_1109_5329)"/>
<path fill-rule="evenodd" clip-rule="evenodd" d="M7.90952 11.1315C8.20064 9.96702 9.38063 9.25903 10.5451 9.55015C12.5081 10.0409 15.1967 11.2985 17.4288 13.4327C19.7022 15.6064 21.564 18.7607 21.564 22.9329V25.1063H13.278C12.0777 25.1063 11.1047 24.1332 11.1047 22.9329C11.1047 21.7326 12.0777 20.7596 13.278 20.7596H16.9496C16.5109 19.0497 15.5717 17.671 14.4248 16.5744C12.7856 15.0071 10.7879 14.0913 9.49087 13.7671C8.3264 13.476 7.6184 12.296 7.90952 11.1315Z" fill="white"/>
<path d="M21.292 29.5889C21.292 31.1643 20.0149 32.4414 18.4394 32.4414C16.864 32.4414 15.5869 31.1643 15.5869 29.5889C15.5869 28.0135 16.864 26.7363 18.4394 26.7363C20.0149 26.7363 21.292 28.0135 21.292 29.5889Z" fill="white"/>
<path fill-rule="evenodd" clip-rule="evenodd" d="M22.51 19.2654H30.7959C31.9963 19.2654 32.9693 20.2384 32.9693 21.4387C32.9693 22.6391 31.9963 23.6121 30.7959 23.6121H27.1244C27.5631 25.3219 28.5022 26.7007 29.6491 27.7972C31.2884 29.3646 33.2861 30.2803 34.5831 30.6046C35.7476 30.8957 36.4556 32.0757 36.1644 33.2402C35.8733 34.4046 34.6933 35.1126 33.5289 34.8215C31.5658 34.3307 28.8772 33.0731 26.6452 30.939C24.3717 28.7652 22.51 25.611 22.51 21.4387V19.2654Z" fill="white"/>
<path d="M28.2158 14.5111C28.2158 16.0865 26.9387 17.3636 25.3633 17.3636C23.7879 17.3636 22.5107 16.0865 22.5107 14.5111C22.5107 12.9357 23.7879 11.6586 25.3633 11.6586C26.9387 11.6586 28.2158 12.9357 28.2158 14.5111Z" fill="white"/>
<path d="M61.4697 23.3317C61.4697 24.4285 61.7071 25.2249 62.1819 25.721C62.6699 26.2041 63.4679 26.4457 64.5758 26.4457C65.5782 26.4457 66.3168 26.2106 66.7916 25.7406C67.2796 25.2575 67.5236 24.4546 67.5236 23.3317V14.0095H70.788V23.3317C70.788 24.7679 70.5967 25.9495 70.2142 26.8765C69.8317 27.7905 69.1789 28.489 68.2556 28.9721C67.3455 29.4421 66.0926 29.6771 64.4966 29.6771C62.9007 29.6771 61.6411 29.4421 60.7179 28.9721C59.8078 28.489 59.1616 27.7905 58.7791 26.8765C58.3966 25.9495 58.2053 24.7679 58.2053 23.3317H61.4697Z" fill="#020105"/>
<path d="M86.0479 17.7306V29.6771H82.6847L83.2782 25.5056H82.8825C82.7242 26.8635 82.4341 27.8688 82.012 28.5216C81.6031 29.1614 81.0953 29.5661 80.4886 29.7358C79.8951 29.9056 79.084 29.9904 78.0552 29.9904C76.855 29.9904 75.8658 29.7489 75.0876 29.2658C74.3226 28.7697 73.7423 27.9667 73.3466 26.8569C72.9641 25.7471 72.7729 24.2718 72.7729 22.4308V17.7306H76.0174V22.4308C76.0174 23.9193 76.2483 24.9964 76.7099 25.6623C77.1847 26.3281 78.0288 26.6611 79.2422 26.6611C80.3897 26.6611 81.247 26.289 81.8142 25.5448C82.3945 24.8006 82.6847 23.7626 82.6847 22.4308V17.7306H86.0479Z" fill="#020105"/>
<path d="M91.2607 24.9768C91.5773 25.5252 91.9795 25.9626 92.4675 26.289C92.9556 26.6154 93.615 26.7786 94.4459 26.7786C95.0658 26.7786 95.5341 26.759 95.8506 26.7198C96.1672 26.6807 96.3848 26.6154 96.5035 26.524C96.6354 26.4195 96.7013 26.2694 96.7013 26.0736C96.7013 25.8908 96.6354 25.7471 96.5035 25.6427C96.3848 25.5252 96.154 25.4273 95.8111 25.3489C95.4681 25.2575 94.9603 25.1661 94.2877 25.0747L93.5359 24.9768C91.8476 24.7549 90.6078 24.3175 89.8165 23.6647C89.0383 23.0118 88.6492 22.1436 88.6492 21.0599C88.6492 20.4463 88.8273 19.8849 89.1834 19.3757C89.5527 18.8665 90.1264 18.4617 90.9046 18.1614C91.6828 17.8481 92.6654 17.6914 93.8524 17.6914C95.4088 17.6914 96.6156 17.9786 97.4729 18.5531C98.3434 19.1145 99.0622 20.0024 99.6294 21.2166L96.8398 22.3329C96.431 21.7715 96.0089 21.3798 95.5736 21.1579C95.1516 20.9359 94.5778 20.8249 93.8524 20.8249C93.1666 20.8249 92.6588 20.8902 92.3291 21.0208C92.0125 21.1383 91.8542 21.3211 91.8542 21.5691C91.8542 21.8172 91.9664 22 92.1906 22.1175C92.4148 22.235 92.8632 22.346 93.5359 22.4504L94.2877 22.5679C95.8308 22.8029 97.0047 23.1032 97.8092 23.4688C98.627 23.8213 99.1743 24.2261 99.4513 24.6831C99.7415 25.127 99.8866 25.6753 99.8866 26.3281C99.8866 26.9418 99.7151 27.5228 99.3722 28.0712C99.0292 28.6065 98.4489 29.0504 97.6312 29.4029C96.8266 29.7424 95.7649 29.9121 94.4459 29.9121C93.3908 29.9121 92.4807 29.8011 91.7158 29.5792C90.964 29.3442 90.2913 28.959 89.6978 28.4237C89.1175 27.8884 88.5635 27.1507 88.0359 26.2106L91.2607 24.9768Z" fill="#020105"/>
<path d="M106.538 21.0599V23.4688C106.538 24.5655 106.597 25.2902 106.716 25.6427C106.834 25.9952 107.124 26.2172 107.586 26.3086C108.048 26.4 109.011 26.4457 110.475 26.4457V29.6771C108.1 29.6771 106.425 29.5139 105.449 29.1875C104.487 28.8611 103.88 28.3062 103.629 27.5228C103.392 26.7394 103.273 25.3881 103.273 23.4688V21.0599H101.077V17.7306H103.273V14.0095H106.538V17.7306H110.475V21.0599H106.538Z" fill="#020105"/>
<path d="M120.667 26.4457H128.779V29.6771L120.667 29.6575V29.6771H117.403V14.0095H120.667V26.4457Z" fill="#020105"/>
<path d="M132.494 17.378C132.006 17.378 131.591 17.2148 131.248 16.8884C130.918 16.562 130.753 16.1638 130.753 15.6938C130.753 15.2238 130.918 14.8255 131.248 14.4991C131.591 14.1727 132.006 14.0095 132.494 14.0095C132.956 14.0095 133.345 14.1727 133.661 14.4991C133.991 14.8255 134.156 15.2238 134.156 15.6938C134.156 16.1638 133.991 16.562 133.661 16.8884C133.345 17.2148 132.956 17.378 132.494 17.378ZM130.832 17.7306H134.097V29.6771H130.832V17.7306Z" fill="#020105"/>
<path d="M144.735 17.4172C145.935 17.4172 146.918 17.6653 147.683 18.1614C148.461 18.6445 149.042 19.4409 149.424 20.5507C149.82 21.6605 150.018 23.1359 150.018 24.9768V29.6771H146.773V24.9768C146.773 23.4884 146.536 22.4113 146.061 21.7454C145.599 21.0795 144.762 20.7466 143.548 20.7466C142.401 20.7466 141.537 21.1187 140.956 21.8629C140.389 22.6071 140.106 23.6451 140.106 24.9768V29.6771H136.743V17.7306H140.106L139.512 21.9021H139.908C140.066 20.5442 140.35 19.5454 140.759 18.9056C141.181 18.2528 141.689 17.8415 142.282 17.6718C142.889 17.5021 143.706 17.4172 144.735 17.4172Z" fill="#020105"/>
<path d="M163.857 17.7306L159.584 22.3917L163.857 29.6771H160.593L157.783 24.3697L156.062 26.2498V29.6771H152.798V14.0095H156.062V22.3917L160.593 17.7306H163.857Z" fill="#020105"/>
<defs>
<linearGradient id="paint0_linear_1109_5329" x1="7.24132" y1="19.6367" x2="38.37" y2="30.8983" gradientUnits="userSpaceOnUse">
<stop stop-color="#1E34FF"/>
<stop offset="1" stop-color="#7A87FF"/>
</linearGradient>
</defs>
</svg>
