<svg width="40" height="40" viewBox="0 0 40 40" fill="none" xmlns="http://www.w3.org/2000/svg">
<rect width="40" height="40" rx="8" fill="#5C46E6"/>
<rect width="40" height="40" rx="8" fill="url(#paint0_linear_1109_5553)"/>
<path fill-rule="evenodd" clip-rule="evenodd" d="M12.314 14.0723C12.4728 13.4371 13.1164 13.051 13.7516 13.2097C14.8223 13.4774 16.2888 14.1634 17.5063 15.3275C18.7464 16.5132 19.7619 18.2337 19.7619 20.5094V21.6949H15.2423C14.5876 21.6949 14.0568 21.1642 14.0568 20.5094C14.0568 19.8547 14.5876 19.324 15.2423 19.324H17.2449C17.0056 18.3913 16.4934 17.6393 15.8678 17.0412C14.9737 16.1862 13.884 15.6868 13.1766 15.5099C12.5414 15.3511 12.1552 14.7075 12.314 14.0723Z" fill="white"/>
<path d="M19.6136 24.1402C19.6136 24.9995 18.917 25.6961 18.0576 25.6961C17.1983 25.6961 16.5017 24.9995 16.5017 24.1402C16.5017 23.2808 17.1983 22.5842 18.0576 22.5842C18.917 22.5842 19.6136 23.2808 19.6136 24.1402Z" fill="white"/>
<path fill-rule="evenodd" clip-rule="evenodd" d="M20.2781 18.5078H24.7977C25.4524 18.5078 25.9831 19.0386 25.9831 19.6933C25.9831 20.348 25.4524 20.8787 24.7977 20.8787H22.795C23.0343 21.8114 23.5466 22.5634 24.1721 23.1616C25.0663 24.0165 26.1559 24.516 26.8634 24.6928C27.4986 24.8516 27.8847 25.4952 27.726 26.1304C27.5672 26.7656 26.9235 27.1518 26.2884 26.993C25.2176 26.7253 23.7511 26.0393 22.5336 24.8752C21.2936 23.6895 20.2781 21.9691 20.2781 19.6933V18.5078Z" fill="white"/>
<path d="M23.3902 15.9148C23.3902 16.7741 22.6936 17.4707 21.8342 17.4707C20.9749 17.4707 20.2783 16.7741 20.2783 15.9148C20.2783 15.0555 20.9749 14.3589 21.8342 14.3589C22.6936 14.3589 23.3902 15.0555 23.3902 15.9148Z" fill="white"/>
<defs>
<linearGradient id="paint0_linear_1109_5553" x1="6.58302" y1="17.8515" x2="34.8818" y2="28.0894" gradientUnits="userSpaceOnUse">
<stop stop-color="#1E34FF"/>
<stop offset="1" stop-color="#7A87FF"/>
</linearGradient>
</defs>
</svg>
