<svg width="164" height="45" viewBox="0 0 164 45" fill="none" xmlns="http://www.w3.org/2000/svg">
<path d="M0 22.0715C0 14.5085 0 10.7269 1.42589 7.81839C2.78907 5.03777 5.03777 2.78907 7.81839 1.42589C10.7269 0 14.5085 0 22.0715 0C29.6346 0 33.4162 0 36.3247 1.42589C39.1053 2.78907 41.354 5.03777 42.7172 7.81839C44.1431 10.7269 44.1431 14.5085 44.1431 22.0715C44.1431 29.6346 44.1431 33.4162 42.7172 36.3247C41.354 39.1053 39.1053 41.354 36.3247 42.7172C33.4162 44.1431 29.6346 44.1431 22.0715 44.1431C14.5085 44.1431 10.7269 44.1431 7.81839 42.7172C5.03777 41.354 2.78907 39.1053 1.42589 36.3247C0 33.4162 0 29.6346 0 22.0715Z" fill="url(#paint0_linear_1078_5632)"/>
<path fill-rule="evenodd" clip-rule="evenodd" d="M7.93519 11.1677C8.22725 9.99947 9.41108 9.28918 10.5793 9.58124C12.5488 10.0736 15.2461 11.3353 17.4854 13.4764C19.7662 15.6572 21.634 18.8217 21.634 23.0075V25.188H13.3212C12.1169 25.188 11.1407 24.2117 11.1407 23.0075C11.1407 21.8033 12.1169 20.8271 13.3212 20.8271H17.0047C16.5645 19.1117 15.6223 17.7285 14.4717 16.6283C12.8271 15.0559 10.8229 14.1372 9.52168 13.8119C8.35342 13.5198 7.64312 12.336 7.93519 11.1677Z" fill="white"/>
<path d="M21.3612 29.6851C21.3612 31.2656 20.0799 32.5469 18.4994 32.5469C16.9188 32.5469 15.6376 31.2656 15.6376 29.6851C15.6376 28.1045 16.9188 26.8232 18.4994 26.8232C20.0799 26.8232 21.3612 28.1045 21.3612 29.6851Z" fill="white"/>
<path fill-rule="evenodd" clip-rule="evenodd" d="M22.5831 19.328H30.896C32.1002 19.328 33.0764 20.3042 33.0764 21.5084C33.0764 22.7126 32.1002 23.6889 30.896 23.6889H27.2125C27.6527 25.4042 28.5948 26.7875 29.7455 27.8876C31.39 29.4601 33.3943 30.3788 34.6955 30.7041C35.8637 30.9961 36.574 32.18 36.282 33.3482C35.9899 34.5165 34.8061 35.2268 33.6378 34.9347C31.6684 34.4424 28.9711 33.1806 26.7318 31.0395C24.4509 28.8587 22.5831 25.6942 22.5831 21.5084V19.328Z" fill="white"/>
<path d="M28.3075 14.5583C28.3075 16.1389 27.0262 17.4202 25.4457 17.4202C23.8651 17.4202 22.5839 16.1389 22.5839 14.5583C22.5839 12.9778 23.8651 11.6965 25.4457 11.6965C27.0262 11.6965 28.3075 12.9778 28.3075 14.5583Z" fill="white"/>
<path d="M61.6128 23.4033C61.6128 24.5 61.8502 25.2964 62.325 25.7926C62.813 26.2756 63.611 26.5172 64.7189 26.5172C65.7213 26.5172 66.4599 26.2822 66.9347 25.8121C67.4227 25.3291 67.6667 24.5261 67.6667 23.4033V14.0811H70.9311V23.4033C70.9311 24.8395 70.7398 26.021 70.3574 26.948C69.9749 27.862 69.322 28.5605 68.3987 29.0436C67.4887 29.5136 66.2357 29.7486 64.6398 29.7486C63.0439 29.7486 61.7843 29.5136 60.861 29.0436C59.951 28.5605 59.3047 27.862 58.9222 26.948C58.5397 26.021 58.3484 24.8395 58.3484 23.4033H61.6128Z" fill="white"/>
<path d="M86.1911 17.8021V29.7486H82.8278L83.4213 25.5771H83.0256C82.8674 26.935 82.5772 27.9403 82.1551 28.5931C81.7463 29.2329 81.2385 29.6376 80.6318 29.8074C80.0382 29.9771 79.2271 30.062 78.1983 30.062C76.9981 30.062 76.0089 29.8204 75.2307 29.3374C74.4657 28.8412 73.8854 28.0382 73.4897 26.9285C73.1072 25.8187 72.916 24.3433 72.916 22.5024V17.8021H76.1606V22.5024C76.1606 23.9908 76.3914 25.0679 76.853 25.7338C77.3278 26.3997 78.1719 26.7326 79.3854 26.7326C80.5328 26.7326 81.3901 26.3605 81.9573 25.6163C82.5376 24.8721 82.8278 23.8341 82.8278 22.5024V17.8021H86.1911Z" fill="white"/>
<path d="M91.4039 25.0484C91.7204 25.5967 92.1227 26.0341 92.6107 26.3605C93.0987 26.6869 93.7581 26.8501 94.5891 26.8501C95.209 26.8501 95.6772 26.8305 95.9937 26.7914C96.3103 26.7522 96.5279 26.6869 96.6466 26.5955C96.7785 26.4911 96.8445 26.3409 96.8445 26.1451C96.8445 25.9623 96.7785 25.8187 96.6466 25.7142C96.5279 25.5967 96.2971 25.4988 95.9542 25.4205C95.6113 25.3291 95.1035 25.2377 94.4308 25.1463L93.679 25.0484C91.9908 24.8264 90.751 24.389 89.9596 23.7362C89.1814 23.0834 88.7924 22.2151 88.7924 21.1315C88.7924 20.5178 88.9704 19.9564 89.3265 19.4472C89.6958 18.938 90.2696 18.5333 91.0477 18.233C91.8259 17.9196 92.8085 17.7629 93.9956 17.7629C95.5519 17.7629 96.7587 18.0502 97.616 18.6247C98.4865 19.1861 99.2053 20.0739 99.7725 21.2881L96.9829 22.4045C96.5741 21.843 96.152 21.4513 95.7168 21.2294C95.2947 21.0074 94.721 20.8964 93.9956 20.8964C93.3097 20.8964 92.8019 20.9617 92.4722 21.0923C92.1556 21.2098 91.9974 21.3926 91.9974 21.6407C91.9974 21.8887 92.1095 22.0715 92.3337 22.189C92.5579 22.3065 93.0064 22.4175 93.679 22.522L94.4308 22.6395C95.974 22.8745 97.1478 23.1748 97.9524 23.5404C98.7701 23.8929 99.3175 24.2976 99.5944 24.7546C99.8846 25.1985 100.03 25.7469 100.03 26.3997C100.03 27.0133 99.8582 27.5943 99.5153 28.1427C99.1724 28.678 98.592 29.1219 97.7743 29.4744C96.9698 29.8139 95.908 29.9836 94.5891 29.9836C93.5339 29.9836 92.6239 29.8727 91.8589 29.6507C91.1071 29.4157 90.4344 29.0305 89.8409 28.4952C89.2606 27.9599 88.7066 27.2222 88.1791 26.2822L91.4039 25.0484Z" fill="white"/>
<path d="M106.681 21.1315V23.5404C106.681 24.6371 106.74 25.3617 106.859 25.7142C106.977 26.0667 107.268 26.2887 107.729 26.3801C108.191 26.4715 109.154 26.5172 110.618 26.5172V29.7486C108.244 29.7486 106.569 29.5854 105.593 29.259C104.63 28.9326 104.023 28.3777 103.772 27.5943C103.535 26.811 103.416 25.4596 103.416 23.5404V21.1315H101.22V17.8021H103.416V14.0811H106.681V17.8021H110.618V21.1315H106.681Z" fill="white"/>
<path d="M120.81 26.5172H128.922V29.7486L120.81 29.729V29.7486H117.546V14.0811H120.81V26.5172Z" fill="white"/>
<path d="M132.637 17.4496C132.149 17.4496 131.734 17.2864 131.391 16.96C131.061 16.6336 130.896 16.2353 130.896 15.7653C130.896 15.2953 131.061 14.8971 131.391 14.5707C131.734 14.2443 132.149 14.0811 132.637 14.0811C133.099 14.0811 133.488 14.2443 133.805 14.5707C134.134 14.8971 134.299 15.2953 134.299 15.7653C134.299 16.2353 134.134 16.6336 133.805 16.96C133.488 17.2864 133.099 17.4496 132.637 17.4496ZM130.975 17.8021H134.24V29.7486H130.975V17.8021Z" fill="white"/>
<path d="M144.878 17.4888C146.079 17.4888 147.061 17.7368 147.826 18.233C148.604 18.716 149.185 19.5125 149.567 20.6223C149.963 21.7321 150.161 23.2074 150.161 25.0484V29.7486H146.916V25.0484C146.916 23.5599 146.679 22.4828 146.204 21.8169C145.742 21.151 144.905 20.8181 143.691 20.8181C142.544 20.8181 141.68 21.1902 141.1 21.9344C140.532 22.6786 140.249 23.7166 140.249 25.0484V29.7486H136.886V17.8021H140.249L139.655 21.9736H140.051C140.209 20.6157 140.493 19.6169 140.902 18.9772C141.324 18.3244 141.832 17.9131 142.425 17.7433C143.032 17.5736 143.85 17.4888 144.878 17.4888Z" fill="white"/>
<path d="M164 17.8021L159.727 22.4632L164 29.7486H160.736L157.926 24.4412L156.205 26.3213V29.7486H152.941V14.0811H156.205V22.4632L160.736 17.8021H164Z" fill="white"/>
<defs>
<linearGradient id="paint0_linear_1078_5632" x1="7.26487" y1="19.7005" x2="38.4948" y2="30.9988" gradientUnits="userSpaceOnUse">
<stop stop-color="#1E34FF"/>
<stop offset="1" stop-color="#7A87FF"/>
</linearGradient>
</defs>
</svg>
