<svg width="181" height="180" viewBox="0 0 181 180" fill="none" xmlns="http://www.w3.org/2000/svg">
<g id="Search_empty">
<ellipse id="Ellipse 1183" opacity="0.1" cx="90.5" cy="174.6" rx="90" ry="5.4" fill="#9A999B"/>
<path id="Union" fill-rule="evenodd" clip-rule="evenodd" d="M129.427 29.4517C130.978 27.3409 133.946 26.8869 136.057 28.4375C138.168 29.9881 138.622 32.9562 137.071 35.0669L131.295 42.9291C129.745 45.0398 126.777 45.4939 124.666 43.9433C122.555 42.3927 122.101 39.4246 123.652 37.3138L129.427 29.4517ZM133.925 31.3387C133.417 30.9653 132.702 31.0746 132.329 31.583L126.553 39.4452C126.179 39.9536 126.289 40.6685 126.797 41.042C127.306 41.4155 128.02 41.3061 128.394 40.7977L134.17 32.9356C134.543 32.4272 134.434 31.7122 133.925 31.3387ZM43.9085 76.036C43.9085 52.9807 62.5985 34.2906 85.6539 34.2906C108.709 34.2906 127.399 52.9807 127.399 76.036C127.399 99.0914 108.709 117.781 85.6539 117.781C62.5985 117.781 43.9085 99.0914 43.9085 76.036ZM85.6539 30.6906C60.6103 30.6906 40.3085 50.9924 40.3085 76.036C40.3085 101.08 60.6103 121.381 85.6539 121.381C93.8867 121.381 101.607 119.187 108.262 115.352L114.148 121.238C113.98 123.739 114.851 126.297 116.763 128.209L134.925 146.371C138.439 149.885 144.138 149.885 147.653 146.371L151.569 142.455C155.083 138.94 155.083 133.242 151.569 129.727L133.407 111.566C131.495 109.653 128.936 108.781 126.434 108.95L121.41 103.926C127.419 96.234 130.999 86.5532 130.999 76.036C130.999 50.9924 110.697 30.6906 85.6539 30.6906ZM122.532 110.139L119.076 106.683C116.774 109.192 114.193 111.441 111.382 113.381L115.336 117.335C115.721 116.673 116.196 116.049 116.763 115.482L120.679 111.566C121.246 110.999 121.87 110.523 122.532 110.139ZM106.466 70.5861C107.355 70.1415 107.716 69.0603 107.271 68.1712C106.826 67.282 105.745 66.9216 104.856 67.3662L90.7332 74.4276C90.1233 74.7325 89.7381 75.3558 89.7381 76.0376C89.7381 76.7194 90.1233 77.3426 90.7332 77.6475L104.856 84.709C105.745 85.1535 106.826 84.7931 107.271 83.904C107.716 83.0148 107.355 81.9336 106.466 81.489L95.5631 76.0376L106.466 70.5861ZM64.035 68.1712C63.5904 69.0603 63.9509 70.1415 64.84 70.5861L75.7429 76.0376L64.84 81.489C63.9509 81.9336 63.5904 83.0148 64.035 83.904C64.4796 84.7931 65.5608 85.1535 66.45 84.709L80.5728 77.6475C81.1826 77.3426 81.5678 76.7194 81.5678 76.0376C81.5678 75.3558 81.1826 74.7325 80.5728 74.4276L66.45 67.3662C65.5608 66.9216 64.4796 67.282 64.035 68.1712ZM55.677 76.0355C55.677 59.48 69.0979 46.0592 85.6534 46.0592C102.209 46.0592 115.63 59.48 115.63 76.0355C115.63 92.591 102.209 106.012 85.6534 106.012C69.0979 106.012 55.677 92.591 55.677 76.0355ZM85.6534 42.4592C67.1097 42.4592 52.077 57.4918 52.077 76.0355C52.077 94.5793 67.1097 109.612 85.6534 109.612C104.197 109.612 119.23 94.5793 119.23 76.0355C119.23 57.4918 104.197 42.4592 85.6534 42.4592ZM149.418 46.8856C148.622 44.3904 145.954 43.0132 143.458 43.8094L134.164 46.7751C131.669 47.5713 130.292 50.2394 131.088 52.7345C131.884 55.2297 134.553 56.6069 137.048 55.8107L146.342 52.845C148.837 52.0488 150.214 49.3807 149.418 46.8856ZM144.553 47.239C145.154 47.0472 145.796 47.379 145.988 47.98C146.18 48.581 145.848 49.2236 145.247 49.4154L135.953 52.3811C135.352 52.5729 134.71 52.2411 134.518 51.6401C134.326 51.0391 134.658 50.3965 135.259 50.2047L144.553 47.239ZM28.0303 102.825C25.5158 103.557 24.0714 106.19 24.8041 108.704C25.5368 111.219 28.1692 112.663 30.6837 111.93L40.0499 109.201C42.5643 108.468 44.0088 105.836 43.276 103.322C42.5433 100.807 39.9109 99.3626 37.3964 100.095L28.0303 102.825ZM28.2604 107.697C28.0839 107.091 28.4318 106.457 29.0375 106.281L38.4036 103.552C39.0092 103.375 39.6433 103.723 39.8198 104.329C39.9963 104.934 39.6484 105.568 39.0427 105.745L29.6766 108.474C29.0709 108.651 28.4369 108.303 28.2604 107.697ZM37.5523 127.583C35.4815 125.979 35.1028 123 36.7063 120.93L42.6794 113.216C44.283 111.146 47.2617 110.767 49.3325 112.37C51.4032 113.974 51.782 116.953 50.1784 119.023L44.2053 126.737C42.6017 128.807 39.623 129.186 37.5523 127.583ZM39.5527 123.134C39.1664 123.633 39.2576 124.35 39.7564 124.736C40.2552 125.123 40.9727 125.031 41.3589 124.533L47.332 116.819C47.7183 116.32 47.6271 115.603 47.1283 115.217C46.6295 114.83 45.912 114.922 45.5258 115.42L39.5527 123.134Z" fill="#9A999B"/>
</g>
</svg>
