<svg width="85" height="28" viewBox="0 0 85 28" fill="none" xmlns="http://www.w3.org/2000/svg">
<g id="Frame 55267" clip-path="url(#clip0_1109_5308)">
<g id="Vector">
<path d="M14.7519 9.36466V0.5H12.265V9.36466L7.83269 1.68421L5.68421 2.93609L10.1165 10.6165L2.43609 6.18421L1.20111 8.33271L8.86465 12.765H0V15.2519H8.86465L1.20111 19.6842L2.43609 21.8327L10.1165 17.4004L5.68421 25.0808L7.83269 26.3158L12.265 18.6353V27.5H14.7519V18.6353" fill="#020105"/>
<path d="M12.265 9.36466V0.5H14.7519V9.36466L19.1842 1.70113L21.3327 2.93609L16.9004 10.6165L24.5808 6.18421L25.8158 8.33271L18.1353 12.765H27V15.2519H18.1353L25.8158 19.6842L24.5808 21.8327L16.9004 17.4004L21.3327 25.0808L19.1842 26.3158L14.7519 18.6353V27.5H12.265V18.6353" fill="#020105"/>
</g>
<g id="Group">
<path id="Vector_2" d="M34.9663 7.62113V9.13338H38.8386H42.1623C42.5018 9.13338 42.8208 9.29576 43.0206 9.57025C43.3039 9.95519 43.4208 10.4319 43.435 10.9097C43.4633 11.8645 43.5095 13.6511 43.526 15.6024L43.5668 20.8533L45.0586 20.8785L46.5423 20.8953V17.4339C46.5341 13.3341 46.4282 10.234 46.2651 9.46103C46.1102 8.72171 45.882 8.27644 45.3684 7.72195C44.3266 6.55736 42.6325 6.27789 41.0718 6.2019C40.2012 6.1595 39.1383 6.1236 37.9663 6.11729L34.9663 6.10889V7.62113Z" fill="#020105"/>
<path id="Vector_3" d="M51.1173 11.1161C51.1173 13.8886 51.1173 17.1032 51.1173 17.1032V20.9049C51.1173 20.9049 52.1037 20.8881 52.8537 20.9049L54.1336 20.9121L57.9895 20.8701C62.1879 20.8281 62.5792 20.7861 63.3373 20.3408C63.8753 20.0132 64.6661 19.1982 64.927 18.711C65.3183 17.98 65.3835 17.3331 65.4405 14.1742C65.4976 10.444 65.4242 9.51148 65.0085 8.63774C64.4215 7.41115 63.1987 6.44499 62.0248 6.26856C61.7395 6.22656 59.1716 6.16775 56.3183 6.14254L51.1173 6.08373V11.1161ZM60.7123 9.20903C60.7123 9.20903 61.5884 9.20903 62.0385 9.57733C62.5684 10.0109 62.571 10.7797 62.571 11.4643V13.5021C62.571 16.8123 62.5547 16.9887 62.1389 17.3835C61.6906 17.812 61.6091 17.8204 57.7042 17.854L54.0521 17.8792V13.5609C54.0521 11.1918 54.0521 9.20903 54.0521 9.20903C54.1254 9.12502 60.7123 9.20903 60.7123 9.20903Z" fill="#020105"/>
<path id="Vector_4" d="M74.3433 6.19291C73.1042 6.26012 72.3542 6.41134 71.7428 6.72219C71.2292 6.98263 70.52 7.72195 70.1205 8.41926C69.5173 9.46943 69.6591 9.57865 69.651 14.0482L69.6511 20.8953H70.9648H72.3053H78.0525H83.7997V19.383V17.8708H78.1422H72.4928L72.452 14.6951C72.4357 12.956 72.4439 11.2589 72.4683 10.9313C72.5824 9.70467 72.9656 9.36021 74.3841 9.21739C74.8324 9.17538 77.1313 9.13338 79.5036 9.13338H83.7997V7.62113V6.10889L79.6666 6.1257C77.384 6.1257 74.9955 6.1593 74.3433 6.19291Z" fill="#020105"/>
<path id="Vector_5" d="M32.4332 6.11006H32.1946V15.0647V20.8953H32.6266C32.8712 20.8953 33.5152 20.8701 34.0533 20.8365L35.0478 20.786V15.0563V6.11006H34.7325H32.4332Z" fill="#020105"/>
</g>
</g>
<defs>
<clipPath id="clip0_1109_5308">
<rect width="85" height="27" fill="white" transform="translate(0 0.5)"/>
</clipPath>
</defs>
</svg>
