<svg width="462" height="334" viewBox="0 0 462 334" fill="none" xmlns="http://www.w3.org/2000/svg">
<g filter="url(#filter0_f_1234_4713)">
<ellipse cx="231" cy="167" rx="151" ry="87" fill="black" fill-opacity="0.12"/>
</g>
<g filter="url(#filter1_f_1234_4713)">
<circle cx="231" cy="167" r="57" fill="url(#paint0_angular_1234_4713)"/>
</g>
<path d="M178 167C178 148.839 178 139.758 181.424 132.774C184.697 126.097 190.097 120.697 196.774 117.424C203.758 114 212.839 114 231 114V114C249.161 114 258.242 114 265.226 117.424C271.903 120.697 277.303 126.097 280.576 132.774C284 139.758 284 148.839 284 167V167C284 185.161 284 194.242 280.576 201.226C277.303 207.903 271.903 213.303 265.226 216.576C258.242 220 249.161 220 231 220V220C212.839 220 203.758 220 196.774 216.576C190.097 213.303 184.697 207.903 181.424 201.226C178 194.242 178 185.161 178 167V167Z" fill="white"/>
<path d="M231 219C221.904 219 215.139 218.999 209.775 218.575C204.421 218.152 200.546 217.312 197.214 215.678C190.736 212.502 185.498 207.264 182.322 200.786C180.688 197.454 179.848 193.579 179.425 188.225C179.001 182.861 179 176.096 179 167C179 157.904 179.001 151.139 179.425 145.775C179.848 140.421 180.688 136.546 182.322 133.214C185.498 126.736 190.736 121.498 197.214 118.322C200.546 116.688 204.421 115.848 209.775 115.425C215.139 115.001 221.904 115 231 115C240.096 115 246.861 115.001 252.225 115.425C257.579 115.848 261.454 116.688 264.786 118.322C271.264 121.498 276.502 126.736 279.678 133.214C281.312 136.546 282.152 140.421 282.575 145.775C282.999 151.139 283 157.904 283 167C283 176.096 282.999 182.861 282.575 188.225C282.152 193.579 281.312 197.454 279.678 200.786C276.502 207.264 271.264 212.502 264.786 215.678C261.454 217.312 257.579 218.152 252.225 218.575C246.861 218.999 240.096 219 231 219Z" stroke="url(#paint1_angular_1234_4713)" stroke-opacity="0.24" stroke-width="2"/>
<path fill-rule="evenodd" clip-rule="evenodd" d="M201.656 144.382C202.263 141.951 204.727 140.473 207.158 141.081C211.256 142.105 216.869 144.731 221.529 149.186C226.275 153.724 230.161 160.309 230.161 169.019V173.556H212.863C210.357 173.556 208.326 171.525 208.326 169.019C208.326 166.513 210.357 164.482 212.863 164.482H220.528C219.612 160.912 217.652 158.034 215.257 155.745C211.835 152.473 207.665 150.561 204.957 149.884C202.526 149.276 201.048 146.813 201.656 144.382Z" fill="white"/>
<path fill-rule="evenodd" clip-rule="evenodd" d="M201.656 144.382C202.263 141.951 204.727 140.473 207.158 141.081C211.256 142.105 216.869 144.731 221.529 149.186C226.275 153.724 230.161 160.309 230.161 169.019V173.556H212.863C210.357 173.556 208.326 171.525 208.326 169.019C208.326 166.513 210.357 164.482 212.863 164.482H220.528C219.612 160.912 217.652 158.034 215.257 155.745C211.835 152.473 207.665 150.561 204.957 149.884C202.526 149.276 201.048 146.813 201.656 144.382Z" fill="url(#paint2_linear_1234_4713)"/>
<path d="M229.594 182.914C229.594 186.203 226.927 188.87 223.638 188.87C220.35 188.87 217.683 186.203 217.683 182.914C217.683 179.626 220.35 176.959 223.638 176.959C226.927 176.959 229.594 179.626 229.594 182.914Z" fill="white"/>
<path d="M229.594 182.914C229.594 186.203 226.927 188.87 223.638 188.87C220.35 188.87 217.683 186.203 217.683 182.914C217.683 179.626 220.35 176.959 223.638 176.959C226.927 176.959 229.594 179.626 229.594 182.914Z" fill="url(#paint3_linear_1234_4713)"/>
<path fill-rule="evenodd" clip-rule="evenodd" d="M232.136 161.363H249.435C251.941 161.363 253.972 163.394 253.972 165.9C253.972 168.406 251.941 170.437 249.435 170.437H241.77C242.686 174.007 244.646 176.885 247.04 179.174C250.463 182.446 254.633 184.358 257.341 185.035C259.772 185.643 261.25 188.106 260.642 190.537C260.035 192.968 257.571 194.446 255.14 193.839C251.042 192.814 245.429 190.188 240.769 185.733C236.023 181.195 232.136 174.61 232.136 165.9V161.363Z" fill="white"/>
<path fill-rule="evenodd" clip-rule="evenodd" d="M232.136 161.363H249.435C251.941 161.363 253.972 163.394 253.972 165.9C253.972 168.406 251.941 170.437 249.435 170.437H241.77C242.686 174.007 244.646 176.885 247.04 179.174C250.463 182.446 254.633 184.358 257.341 185.035C259.772 185.643 261.25 188.106 260.642 190.537C260.035 192.968 257.571 194.446 255.14 193.839C251.042 192.814 245.429 190.188 240.769 185.733C236.023 181.195 232.136 174.61 232.136 165.9V161.363Z" fill="url(#paint4_linear_1234_4713)"/>
<path d="M244.048 151.437C244.048 154.726 241.382 157.393 238.093 157.393C234.804 157.393 232.138 154.726 232.138 151.437C232.138 148.148 234.804 145.482 238.093 145.482C241.382 145.482 244.048 148.148 244.048 151.437Z" fill="white"/>
<path d="M244.048 151.437C244.048 154.726 241.382 157.393 238.093 157.393C234.804 157.393 232.138 154.726 232.138 151.437C232.138 148.148 234.804 145.482 238.093 145.482C241.382 145.482 244.048 148.148 244.048 151.437Z" fill="url(#paint5_linear_1234_4713)"/>
<defs>
<filter id="filter0_f_1234_4713" x="0" y="0" width="462" height="334" filterUnits="userSpaceOnUse" color-interpolation-filters="sRGB">
<feFlood flood-opacity="0" result="BackgroundImageFix"/>
<feBlend mode="normal" in="SourceGraphic" in2="BackgroundImageFix" result="shape"/>
<feGaussianBlur stdDeviation="40" result="effect1_foregroundBlur_1234_4713"/>
</filter>
<filter id="filter1_f_1234_4713" x="134" y="70" width="194" height="194" filterUnits="userSpaceOnUse" color-interpolation-filters="sRGB">
<feFlood flood-opacity="0" result="BackgroundImageFix"/>
<feBlend mode="normal" in="SourceGraphic" in2="BackgroundImageFix" result="shape"/>
<feGaussianBlur stdDeviation="20" result="effect1_foregroundBlur_1234_4713"/>
</filter>
<radialGradient id="paint0_angular_1234_4713" cx="0" cy="0" r="1" gradientUnits="userSpaceOnUse" gradientTransform="translate(231 167) rotate(90) scale(57)">
<stop offset="0.102457" stop-color="#FFEC3E"/>
<stop offset="0.333333" stop-color="#E334FF"/>
<stop offset="0.666667" stop-color="#FFAA2B"/>
<stop offset="0.885907" stop-color="#FF2C2C"/>
</radialGradient>
<radialGradient id="paint1_angular_1234_4713" cx="0" cy="0" r="1" gradientUnits="userSpaceOnUse" gradientTransform="translate(231 167) rotate(90) scale(53)">
<stop offset="0.102457" stop-color="#FFEC3E"/>
<stop offset="0.333333" stop-color="#E334FF"/>
<stop offset="0.666667" stop-color="#FFAA2B"/>
<stop offset="0.885907" stop-color="#FF2C2C"/>
</radialGradient>
<linearGradient id="paint2_linear_1234_4713" x1="206.233" y1="155.499" x2="227.047" y2="162.112" gradientUnits="userSpaceOnUse">
<stop stop-color="#1E34FF"/>
<stop offset="1" stop-color="#7A87FF"/>
</linearGradient>
<linearGradient id="paint3_linear_1234_4713" x1="219.643" y1="182.275" x2="228.07" y2="185.323" gradientUnits="userSpaceOnUse">
<stop stop-color="#1E34FF"/>
<stop offset="1" stop-color="#7A87FF"/>
</linearGradient>
<linearGradient id="paint4_linear_1234_4713" x1="236.85" y1="175.917" x2="257.665" y2="182.531" gradientUnits="userSpaceOnUse">
<stop stop-color="#1E34FF"/>
<stop offset="1" stop-color="#7A87FF"/>
</linearGradient>
<linearGradient id="paint5_linear_1234_4713" x1="234.098" y1="150.798" x2="242.524" y2="153.846" gradientUnits="userSpaceOnUse">
<stop stop-color="#1E34FF"/>
<stop offset="1" stop-color="#7A87FF"/>
</linearGradient>
</defs>
</svg>
