<svg width="394" height="334" viewBox="0 0 394 334" fill="none" xmlns="http://www.w3.org/2000/svg">
<g filter="url(#filter0_f_1109_5278)">
<ellipse cx="197" cy="167" rx="151" ry="87" fill="black" fill-opacity="0.12"/>
</g>
<g filter="url(#filter1_f_1109_5278)">
<circle cx="197" cy="167" r="57" fill="url(#paint0_angular_1109_5278)"/>
</g>
<path d="M144 167C144 148.839 144 139.758 147.424 132.774C150.697 126.097 156.097 120.697 162.774 117.424C169.758 114 178.839 114 197 114C215.161 114 224.242 114 231.226 117.424C237.903 120.697 243.303 126.097 246.576 132.774C250 139.758 250 148.839 250 167C250 185.161 250 194.242 246.576 201.226C243.303 207.903 237.903 213.303 231.226 216.576C224.242 220 215.161 220 197 220C178.839 220 169.758 220 162.774 216.576C156.097 213.303 150.697 207.903 147.424 201.226C144 194.242 144 185.161 144 167Z" fill="white"/>
<path d="M145 167C145 157.904 145.001 151.139 145.425 145.775C145.848 140.421 146.688 136.546 148.322 133.214C151.498 126.736 156.736 121.498 163.214 118.322C166.546 116.688 170.421 115.848 175.775 115.425C181.139 115.001 187.904 115 197 115C206.096 115 212.861 115.001 218.225 115.425C223.579 115.848 227.454 116.688 230.786 118.322C237.264 121.498 242.502 126.736 245.678 133.214C247.312 136.546 248.152 140.421 248.575 145.775C248.999 151.139 249 157.904 249 167C249 176.096 248.999 182.861 248.575 188.225C248.152 193.579 247.312 197.454 245.678 200.786C242.502 207.264 237.264 212.502 230.786 215.678C227.454 217.312 223.579 218.152 218.225 218.575C212.861 218.999 206.096 219 197 219C187.904 219 181.139 218.999 175.775 218.575C170.421 218.152 166.546 217.312 163.214 215.678C156.736 212.502 151.498 207.264 148.322 200.786C146.688 197.454 145.848 193.579 145.425 188.225C145.001 182.861 145 176.096 145 167Z" stroke="url(#paint1_angular_1109_5278)" stroke-opacity="0.24" stroke-width="2"/>
<path fill-rule="evenodd" clip-rule="evenodd" d="M167.656 144.382C168.263 141.951 170.727 140.473 173.158 141.081C177.256 142.105 182.869 144.731 187.529 149.186C192.275 153.724 196.161 160.309 196.161 169.019V173.556H178.863C176.357 173.556 174.326 171.525 174.326 169.019C174.326 166.513 176.357 164.482 178.863 164.482H186.528C185.612 160.912 183.652 158.034 181.257 155.745C177.835 152.473 173.665 150.561 170.957 149.884C168.526 149.276 167.048 146.813 167.656 144.382Z" fill="white"/>
<path fill-rule="evenodd" clip-rule="evenodd" d="M167.656 144.382C168.263 141.951 170.727 140.473 173.158 141.081C177.256 142.105 182.869 144.731 187.529 149.186C192.275 153.724 196.161 160.309 196.161 169.019V173.556H178.863C176.357 173.556 174.326 171.525 174.326 169.019C174.326 166.513 176.357 164.482 178.863 164.482H186.528C185.612 160.912 183.652 158.034 181.257 155.745C177.835 152.473 173.665 150.561 170.957 149.884C168.526 149.276 167.048 146.813 167.656 144.382Z" fill="url(#paint2_linear_1109_5278)"/>
<path d="M195.594 182.914C195.594 186.203 192.927 188.87 189.638 188.87C186.35 188.87 183.683 186.203 183.683 182.914C183.683 179.626 186.35 176.959 189.638 176.959C192.927 176.959 195.594 179.626 195.594 182.914Z" fill="white"/>
<path d="M195.594 182.914C195.594 186.203 192.927 188.87 189.638 188.87C186.35 188.87 183.683 186.203 183.683 182.914C183.683 179.626 186.35 176.959 189.638 176.959C192.927 176.959 195.594 179.626 195.594 182.914Z" fill="url(#paint3_linear_1109_5278)"/>
<path fill-rule="evenodd" clip-rule="evenodd" d="M198.136 161.363H215.434C217.94 161.363 219.972 163.394 219.972 165.9C219.972 168.406 217.94 170.437 215.434 170.437H207.769C208.685 174.007 210.646 176.885 213.04 179.174C216.462 182.446 220.633 184.358 223.341 185.035C225.772 185.643 227.25 188.106 226.642 190.537C226.034 192.968 223.571 194.446 221.14 193.839C217.042 192.814 211.429 190.188 206.769 185.733C202.023 181.195 198.136 174.61 198.136 165.9V161.363Z" fill="white"/>
<path fill-rule="evenodd" clip-rule="evenodd" d="M198.136 161.363H215.434C217.94 161.363 219.972 163.394 219.972 165.9C219.972 168.406 217.94 170.437 215.434 170.437H207.769C208.685 174.007 210.646 176.885 213.04 179.174C216.462 182.446 220.633 184.358 223.341 185.035C225.772 185.643 227.25 188.106 226.642 190.537C226.034 192.968 223.571 194.446 221.14 193.839C217.042 192.814 211.429 190.188 206.769 185.733C202.023 181.195 198.136 174.61 198.136 165.9V161.363Z" fill="url(#paint4_linear_1109_5278)"/>
<path d="M210.048 151.437C210.048 154.726 207.381 157.393 204.093 157.393C200.804 157.393 198.137 154.726 198.137 151.437C198.137 148.148 200.804 145.482 204.093 145.482C207.381 145.482 210.048 148.148 210.048 151.437Z" fill="white"/>
<path d="M210.048 151.437C210.048 154.726 207.381 157.393 204.093 157.393C200.804 157.393 198.137 154.726 198.137 151.437C198.137 148.148 200.804 145.482 204.093 145.482C207.381 145.482 210.048 148.148 210.048 151.437Z" fill="url(#paint5_linear_1109_5278)"/>
<defs>
<filter id="filter0_f_1109_5278" x="-34" y="0" width="462" height="334" filterUnits="userSpaceOnUse" color-interpolation-filters="sRGB">
<feFlood flood-opacity="0" result="BackgroundImageFix"/>
<feBlend mode="normal" in="SourceGraphic" in2="BackgroundImageFix" result="shape"/>
<feGaussianBlur stdDeviation="40" result="effect1_foregroundBlur_1109_5278"/>
</filter>
<filter id="filter1_f_1109_5278" x="100" y="70" width="194" height="194" filterUnits="userSpaceOnUse" color-interpolation-filters="sRGB">
<feFlood flood-opacity="0" result="BackgroundImageFix"/>
<feBlend mode="normal" in="SourceGraphic" in2="BackgroundImageFix" result="shape"/>
<feGaussianBlur stdDeviation="20" result="effect1_foregroundBlur_1109_5278"/>
</filter>
<radialGradient id="paint0_angular_1109_5278" cx="0" cy="0" r="1" gradientUnits="userSpaceOnUse" gradientTransform="translate(197 167) rotate(90) scale(57)">
<stop offset="0.102457" stop-color="#FFEC3E"/>
<stop offset="0.333333" stop-color="#E334FF"/>
<stop offset="0.666667" stop-color="#FFAA2B"/>
<stop offset="0.885907" stop-color="#FF2C2C"/>
</radialGradient>
<radialGradient id="paint1_angular_1109_5278" cx="0" cy="0" r="1" gradientUnits="userSpaceOnUse" gradientTransform="translate(197 167) rotate(90) scale(53)">
<stop offset="0.102457" stop-color="#FFEC3E"/>
<stop offset="0.333333" stop-color="#E334FF"/>
<stop offset="0.666667" stop-color="#FFAA2B"/>
<stop offset="0.885907" stop-color="#FF2C2C"/>
</radialGradient>
<linearGradient id="paint2_linear_1109_5278" x1="172.233" y1="155.499" x2="193.047" y2="162.112" gradientUnits="userSpaceOnUse">
<stop stop-color="#1E34FF"/>
<stop offset="1" stop-color="#7A87FF"/>
</linearGradient>
<linearGradient id="paint3_linear_1109_5278" x1="185.643" y1="182.275" x2="194.07" y2="185.323" gradientUnits="userSpaceOnUse">
<stop stop-color="#1E34FF"/>
<stop offset="1" stop-color="#7A87FF"/>
</linearGradient>
<linearGradient id="paint4_linear_1109_5278" x1="202.85" y1="175.917" x2="223.664" y2="182.531" gradientUnits="userSpaceOnUse">
<stop stop-color="#1E34FF"/>
<stop offset="1" stop-color="#7A87FF"/>
</linearGradient>
<linearGradient id="paint5_linear_1109_5278" x1="200.098" y1="150.798" x2="208.524" y2="153.846" gradientUnits="userSpaceOnUse">
<stop stop-color="#1E34FF"/>
<stop offset="1" stop-color="#7A87FF"/>
</linearGradient>
</defs>
</svg>
